<?xml version="1.0" encoding="utf-8"?>
<!-- Generator: Adobe Illustrator 19.0.0, SVG Export Plug-In . SVG Version: 6.00 Build 0)  -->
<svg version="1.1" id="Layer_1" xmlns="http://www.w3.org/2000/svg" xmlns:xlink="http://www.w3.org/1999/xlink" x="0px" y="0px"
	 viewBox="0 0 288.7 265.3" style="enable-background:new 0 0 288.7 265.3;" xml:space="preserve">
<style type="text/css">
	.st0{fill:#B795C6;}
	.st1{fill:#837EBC;}
</style>
<path class="st0" d="M216.8,119.2c0,0-14.8-26.1-33.8-14.2c-13.3,8.4-29.7,18.8-38.3,24.2c0,0,0,0,0,0c0.1,0.1,0.2,0.2,0.2,0.3
	c17-7.5,67.5-16.5,135,89.5L216.8,119.2z"/>
<path class="st0" d="M146.6,130c-8.4-5.3-25.5-16.1-39.2-24.8c-18.9-12-33.8,14.2-33.8,14.2l-63.1,99.9
	c68.7-108,119.9-96.6,135.9-89.1C146.5,130.1,146.5,130,146.6,130z"/>
<path class="st1" d="M47.9,259.7l103-57.8c0,0,26.9-13.4,15.9-33c-11-19.5-25.7-45.7-25.7-45.7S183.6,183,47.9,259.7z"/>
<path class="st1" d="M244.7,5.4l-103,57.8c0,0-26.9,13.4-15.9,33s25.7,45.7,25.7,45.7S109.1,82.1,244.7,5.4z"/>
</svg>
